<svg width="23" height="24" viewBox="0 0 23 24" fill="none" xmlns="http://www.w3.org/2000/svg">
<path d="M7.66759 11.7783C7.66759 9.66131 9.38336 7.94468 11.5005 7.94468C13.6176 7.94468 15.3343 9.66131 15.3343 11.7783C15.3343 13.8953 13.6176 15.612 11.5005 15.612C9.38336 15.612 7.66759 13.8953 7.66759 11.7783ZM5.59511 11.7783C5.59511 15.0397 8.23893 17.6834 11.5005 17.6834C14.762 17.6834 17.4058 15.0397 17.4058 11.7783C17.4058 8.51692 14.762 5.87321 11.5005 5.87321C8.23893 5.87321 5.59511 8.51692 5.59511 11.7783ZM16.2595 5.63907C16.2594 5.91201 16.3403 6.17885 16.4918 6.40585C16.6434 6.63285 16.8588 6.80981 17.111 6.91436C17.3631 7.01891 17.6406 7.04635 17.9083 6.99321C18.176 6.94007 18.422 6.80874 18.615 6.61582C18.8081 6.4229 18.9397 6.17706 18.993 5.90939C19.0464 5.64171 19.0192 5.36423 18.9148 5.11203C18.8105 4.85982 18.6337 4.64423 18.4068 4.4925C18.1799 4.34077 17.9131 4.25973 17.6401 4.25962H17.6396C17.2737 4.25979 16.9229 4.40516 16.6641 4.66381C16.4054 4.92245 16.2599 5.27322 16.2595 5.63907ZM6.85427 21.139C5.73303 21.088 5.12359 20.9012 4.71859 20.7434C4.18166 20.5344 3.79856 20.2855 3.39576 19.8832C2.99297 19.481 2.74364 19.0983 2.53553 18.5614C2.37765 18.1566 2.19088 17.547 2.13991 16.4258C2.08416 15.2136 2.07303 14.8495 2.07303 11.7784C2.07303 8.70736 2.08508 8.34424 2.13991 7.13103C2.19098 6.00983 2.37912 5.40143 2.53553 4.99544C2.74456 4.45852 2.99352 4.07544 3.39576 3.67266C3.798 3.26988 4.18074 3.02056 4.71859 2.81246C5.12341 2.65459 5.73303 2.46783 6.85427 2.41686C8.06651 2.36111 8.43067 2.34998 11.5005 2.34998C14.5703 2.34998 14.9348 2.36203 16.148 2.41686C17.2693 2.46792 17.8777 2.65606 18.2837 2.81246C18.8206 3.02056 19.2037 3.27044 19.6065 3.67266C20.0093 4.07488 20.2577 4.45852 20.4668 4.99544C20.6246 5.40024 20.8114 6.00983 20.8624 7.13103C20.9181 8.34424 20.9293 8.70736 20.9293 11.7784C20.9293 14.8495 20.9181 15.2126 20.8624 16.4258C20.8113 17.547 20.6236 18.1564 20.4668 18.5614C20.2577 19.0983 20.0088 19.4814 19.6065 19.8832C19.2043 20.2851 18.8206 20.5344 18.2837 20.7434C17.8789 20.9013 17.2693 21.0881 16.148 21.139C14.9358 21.1948 14.5716 21.2059 11.5005 21.2059C8.42929 21.2059 8.06615 21.1948 6.85427 21.139ZM6.75905 0.347964C5.53476 0.403716 4.69817 0.597836 3.96757 0.882116C3.21093 1.17569 2.5704 1.56954 1.93033 2.20857C1.29026 2.8476 0.897404 3.48912 0.60382 4.24573C0.319529 4.97676 0.125401 5.81286 0.0696468 7.0371C0.0129725 8.26328 0 8.65529 0 11.7783C0 14.9014 0.0129725 15.2934 0.0696468 16.5195C0.125401 17.7439 0.319529 18.5799 0.60382 19.3109C0.897404 20.0671 1.29035 20.7093 1.93033 21.3481C2.57031 21.9868 3.21093 22.3801 3.96757 22.6745C4.69955 22.9588 5.53476 23.1529 6.75905 23.2087C7.98592 23.2644 8.3773 23.2783 11.5005 23.2783C14.6236 23.2783 15.0156 23.2653 16.2419 23.2087C17.4663 23.1529 18.3023 22.9588 19.0334 22.6745C19.7895 22.3801 20.4305 21.9871 21.0706 21.3481C21.7107 20.709 22.1027 20.0671 22.3971 19.3109C22.6814 18.5799 22.8764 17.7438 22.9313 16.5195C22.987 15.2924 23 14.9014 23 11.7783C23 8.65529 22.987 8.26328 22.9313 7.0371C22.8755 5.81276 22.6814 4.9763 22.3971 4.24573C22.1027 3.48958 21.7096 2.84862 21.0706 2.20857C20.4315 1.56853 19.7895 1.17569 19.0343 0.882116C18.3023 0.597836 17.4662 0.402796 16.2428 0.347964C15.0166 0.292212 14.6245 0.27832 11.5014 0.27832C8.37822 0.27832 7.98592 0.291292 6.75905 0.347964Z" fill="black"/>
</svg>
