<svg width="22" height="22" viewBox="0 0 22 22" fill="none" xmlns="http://www.w3.org/2000/svg">
<path d="M21.5882 21.2783C20.2706 21.2783 19.0353 21.2783 17.7176 21.2783C17.4706 21.2783 17.3882 21.191 17.3882 20.9289C17.3882 18.4831 17.3882 16.0374 17.3882 13.5916C17.3882 13.0675 17.3882 12.456 17.2235 11.9319C16.7294 10.185 14.9176 9.57351 13.6 10.7091C12.8588 11.3205 12.6118 12.1066 12.6118 13.0675C12.6118 15.3386 12.6118 17.697 12.6118 19.9681C12.6118 20.2301 12.6118 20.5795 12.6118 20.8416C12.6118 21.1036 12.5294 21.191 12.2824 21.1036C10.9647 21.1036 9.64706 21.1036 8.32941 21.1036C8.08235 21.1036 8 21.0163 8 20.7542C8 18.6578 8 16.6488 8 14.5524C8 12.0193 8 9.48616 8 6.95303C8 6.69098 8.08235 6.60364 8.32941 6.60364C9.64706 6.60364 10.9647 6.60364 12.2824 6.60364C12.5294 6.60364 12.6118 6.69098 12.6118 6.95303C12.6118 7.47713 12.6118 8.00122 12.6118 8.61267C12.6941 8.52532 12.7765 8.43797 12.7765 8.43797C14.0118 6.60363 15.6588 6.07954 17.7176 6.34159C20.0235 6.77833 21.5059 8.43797 21.9177 11.0584C22 11.6699 22 12.2813 22 12.8928C22 15.5133 22 18.1337 22 20.7542C21.9176 21.191 21.8353 21.2783 21.5882 21.2783Z" fill="black"/>
<path d="M4.91072 14.2364C4.91072 16.416 4.91072 18.6795 4.91072 20.8592C4.91072 21.1107 4.82143 21.2783 4.55357 21.2783C3.125 21.2783 1.69643 21.2783 0.357144 21.2783C0.0892871 21.2783 0 21.1945 0 20.943C0 16.4999 0 12.0568 0 7.61365C0 7.36215 0.0892871 7.27832 0.357144 7.27832C1.78572 7.27832 3.21428 7.27832 4.64286 7.27832C4.91071 7.27832 5 7.36215 5 7.61365C4.91071 9.79329 4.91072 11.9729 4.91072 14.2364Z" fill="black"/>
<path d="M4.91925 3.40469C4.60052 4.70734 3.40531 5.48893 1.97105 5.2284C0.457112 4.96787 -0.339701 3.40469 0.138385 1.8415C0.457109 0.886225 1.3336 0.27832 2.44914 0.27832C4.20212 0.27832 5.31765 1.66782 4.91925 3.40469Z" fill="black"/>
</svg>
