<svg width="22" height="21" viewBox="0 0 22 21" fill="none" xmlns="http://www.w3.org/2000/svg">
<path d="M21.5882 21C20.2706 21 19.0353 21 17.7176 21C17.4706 21 17.3882 20.9126 17.3882 20.6506C17.3882 18.2048 17.3882 15.759 17.3882 13.3133C17.3882 12.7892 17.3882 12.1777 17.2235 11.6536C16.7294 9.90664 14.9176 9.29519 13.6 10.4307C12.8588 11.0422 12.6118 11.8283 12.6118 12.7892C12.6118 15.0602 12.6118 17.4187 12.6118 19.6898C12.6118 19.9518 12.6118 20.3012 12.6118 20.5633C12.6118 20.8253 12.5294 20.9127 12.2824 20.8253C10.9647 20.8253 9.64706 20.8253 8.32941 20.8253C8.08235 20.8253 8 20.738 8 20.4759C8 18.3795 8 16.3705 8 14.2741C8 11.741 8 9.20784 8 6.67471C8 6.41266 8.08235 6.32532 8.32941 6.32532C9.64706 6.32532 10.9647 6.32532 12.2824 6.32532C12.5294 6.32532 12.6118 6.41266 12.6118 6.67471C12.6118 7.19881 12.6118 7.7229 12.6118 8.33435C12.6941 8.247 12.7765 8.15965 12.7765 8.15965C14.0118 6.32531 15.6588 5.80122 17.7176 6.06327C20.0235 6.50001 21.5059 8.15965 21.9177 10.7801C22 11.3916 22 12.003 22 12.6145C22 15.2349 22 17.8554 22 20.4759C21.9176 20.9127 21.8353 21 21.5882 21Z" fill="white"/>
<path d="M4.91072 13.9581C4.91072 16.1377 4.91072 18.4012 4.91072 20.5808C4.91072 20.8323 4.82143 21 4.55357 21C3.125 21 1.69643 21 0.357144 21C0.0892871 21 0 20.9162 0 20.6647C0 16.2216 0 11.7784 0 7.33533C0 7.08383 0.0892871 7 0.357144 7C1.78572 7 3.21428 7 4.64286 7C4.91071 7 5 7.08383 5 7.33533C4.91071 9.51497 4.91072 11.6946 4.91072 13.9581Z" fill="white"/>
<path d="M4.91925 3.12637C4.60052 4.42902 3.40531 5.21061 1.97105 4.95008C0.457112 4.68955 -0.339701 3.12637 0.138385 1.56318C0.457109 0.607904 1.3336 0 2.44914 0C4.20212 0 5.31765 1.3895 4.91925 3.12637Z" fill="white"/>
</svg>
