<svg width="114" height="30" viewBox="0 0 114 30" fill="none" xmlns="http://www.w3.org/2000/svg">
<path d="M9 10.1887C9 10.486 9 10.6842 9.0991 10.8824C9 10.6842 9 10.486 9 10.3869V10.1887Z" fill="white"/>
<path d="M17.4041 15.5461L28 26.5119L26.8425 27.802L25.6849 29L15 17.942L4.40411 29L2 26.5119L12.6849 15.5461L2 4.48806L4.40411 2L15 13.058L25.6849 2L28 4.48806L17.4041 15.5461Z" fill="white"/>
<path d="M12 1.45455C12 2.27273 11.3684 3 10.1955 3H4.2406C3.60902 3 3.06767 3.54545 3.06767 4.18182V10.1818C3.06767 11.3636 2.43609 12 1.53384 12C0.63158 12 0 11.4545 0 10.2727V3C0 1.27273 1.35338 0 2.97744 0H10.1955C11.3684 0 12 0.636364 12 1.45455Z" fill="white"/>
<path d="M28.4662 12C27.6541 12 26.9323 11.3684 26.9323 10.1955V4.2406C26.9323 3.60902 26.391 3.06767 25.7594 3.06767H19.8045C18.6316 3.06767 18 2.43609 18 1.53384C18 0.63158 18.6316 0 19.8045 0H27.0226C28.6466 0 30 1.35338 30 2.97744V10.1955C29.9098 11.4586 29.2782 12 28.4662 12Z" fill="white"/>
<path d="M18 28.4662C18 27.6541 18.6316 26.9323 19.8045 26.9323H25.7594C26.391 26.9323 26.9323 26.391 26.9323 25.7594V19.8045C26.9323 18.6316 27.5639 18 28.4662 18C29.2782 18 30 18.6316 30 19.8045V27.0226C30 28.6466 28.6466 30 27.0226 30H19.8045C18.6316 30 18 29.2782 18 28.4662Z" fill="white"/>
<path d="M12 28.4662C12 27.6541 11.3684 26.9323 10.1955 26.9323H4.2406C3.60902 26.9323 3.06767 26.391 3.06767 25.7594V19.8045C3.06767 18.6316 2.43609 18 1.53384 18C0.63158 18 0 18.6316 0 19.8045V27.0226C0 28.6466 1.35338 30 2.97744 30H10.1955C11.3684 30 12 29.2782 12 28.4662Z" fill="white"/>
<path d="M45.1866 1.74927L46.2361 3.3236L47.2857 1.74927H49.2099L47.2857 4.63555L49.3848 7.78422H47.3732L46.1487 6.03496L44.9242 7.78422H43L45.0991 4.72301L43.2624 1.74927H45.1866Z" fill="white"/>
<path d="M54.7206 6.38481V7.69675H49.9102V1.74927H54.5457V3.06121H51.572V4.02331H54.1958V5.24779H51.572V6.29735H54.7206V6.38481Z" fill="white"/>
<path d="M59.8803 2.01166C60.3176 2.18658 60.58 2.44897 60.7549 2.79882C61.0173 3.06121 61.1048 3.49853 61.1048 3.93584C61.1048 4.37316 61.0173 4.81047 60.7549 5.07286C60.58 5.42271 60.2301 5.68511 59.8803 5.86003C59.443 6.03496 59.0057 6.12242 58.4809 6.12242H57.4313V7.69675H55.7695V1.74927H58.4809C59.0057 1.74927 59.443 1.83673 59.8803 2.01166ZM59.0931 4.54809C59.268 4.37316 59.3555 4.19823 59.3555 3.93584C59.3555 3.67345 59.268 3.41106 59.0931 3.3236C58.9182 3.14868 58.6558 3.06121 58.306 3.06121H57.3439V4.81047H58.306C58.6558 4.81047 58.9182 4.72301 59.0931 4.54809Z" fill="white"/>
<path d="M63.2042 7.43504C62.6794 7.17265 62.3296 6.8228 62.0672 6.29802C61.8048 5.8607 61.6299 5.33592 61.6299 4.72368C61.6299 4.11144 61.8048 3.58666 62.0672 3.14935C62.3296 2.71203 62.7669 2.27472 63.2042 2.01233C63.6415 1.74994 64.2538 1.66248 64.866 1.66248C65.3908 1.66248 65.9156 1.74994 66.3529 1.92487C66.7902 2.09979 67.1401 2.36218 67.4024 2.7995L66.3529 3.76159C66.003 3.32427 65.4783 3.06188 64.9535 3.06188C64.6036 3.06188 64.3412 3.14935 64.0789 3.23681C63.8165 3.41174 63.6415 3.58666 63.4666 3.84905C63.2917 4.11144 63.2917 4.37383 63.2917 4.72368C63.2917 5.07353 63.3791 5.33592 63.4666 5.59831C63.6415 5.8607 63.8165 6.03563 64.0789 6.21056C64.3412 6.38548 64.6036 6.38548 64.9535 6.38548C65.4783 6.38548 66.003 6.12309 66.3529 5.68578L67.4024 6.64787C67.1401 6.99772 66.7902 7.26011 66.3529 7.5225C65.9156 7.69743 65.3908 7.78489 64.866 7.78489C64.2538 7.78489 63.6415 7.69743 63.2042 7.43504Z" fill="white"/>
<path d="M69.3263 7.43388C68.8015 7.17149 68.4517 6.82164 68.1893 6.29686C67.9269 5.85954 67.752 5.33476 67.752 4.72252C67.752 4.11028 67.9269 3.5855 68.1893 3.14819C68.4517 2.71087 68.889 2.27356 69.3263 2.01117C69.8511 1.74878 70.3758 1.57385 70.9881 1.57385C71.6003 1.57385 72.2126 1.74878 72.6499 2.01117C73.1747 2.27356 73.5245 2.62341 73.7869 3.14819C74.0493 3.5855 74.2242 4.11028 74.2242 4.72252C74.2242 5.33476 74.0493 5.85954 73.7869 6.29686C73.5245 6.73417 73.0872 7.17149 72.6499 7.43388C72.1251 7.69627 71.6003 7.87119 70.9881 7.87119C70.3758 7.87119 69.8511 7.69627 69.3263 7.43388ZM71.8627 6.20939C72.1251 6.03447 72.3 5.85954 72.475 5.59715C72.6499 5.33476 72.6499 5.07237 72.6499 4.72252C72.6499 4.37267 72.5624 4.11028 72.475 3.84789C72.3 3.5855 72.1251 3.41058 71.8627 3.23565C71.6003 3.06073 71.3379 3.06072 71.0756 3.06072C70.8132 3.06072 70.4633 3.14819 70.2884 3.23565C70.026 3.41058 69.8511 3.5855 69.6761 3.84789C69.5012 4.11028 69.5012 4.37267 69.5012 4.72252C69.5012 5.07237 69.5887 5.33476 69.6761 5.59715C69.8511 5.85954 70.026 6.03447 70.2884 6.20939C70.5508 6.38432 70.8132 6.38432 71.0756 6.38432C71.3379 6.38432 71.6003 6.29686 71.8627 6.20939Z" fill="white"/>
<path d="M80.8721 1.74927V7.69675H79.2103V5.33525H76.9362V7.69675H75.2744V1.74927H76.9362V4.02331H79.2103V1.74927H80.8721Z" fill="white"/>
<path d="M83.4078 7.43388C82.8831 7.17149 82.5332 6.82164 82.2708 6.29686C82.0084 5.85954 81.8335 5.33476 81.8335 4.72252C81.8335 4.11028 82.0084 3.5855 82.2708 3.14819C82.5332 2.71087 82.9705 2.27356 83.4078 2.01117C83.9326 1.74878 84.4574 1.57385 85.0696 1.57385C85.5944 1.57385 86.1192 1.66132 86.5565 1.83624C86.9938 2.01117 87.3437 2.27356 87.6061 2.71087L86.5565 3.67297C86.2066 3.23565 85.6819 2.97326 85.1571 2.97326C84.8072 2.97326 84.5449 3.06073 84.2825 3.14819C84.0201 3.32311 83.8451 3.49804 83.6702 3.76043C83.4953 4.02282 83.4953 4.28521 83.4953 4.63506C83.4953 4.98491 83.5828 5.2473 83.6702 5.50969C83.8451 5.77208 84.0201 5.94701 84.2825 6.12193C84.5449 6.29686 84.8072 6.29686 85.1571 6.29686C85.6819 6.29686 86.2066 6.03447 86.5565 5.59715L87.6061 6.55925C87.3437 6.9091 86.9938 7.17149 86.5565 7.43388C86.1192 7.6088 85.5944 7.69627 85.0696 7.69627C84.5449 7.78373 83.9326 7.69627 83.4078 7.43388Z" fill="white"/>
<path d="M93.204 4.11077C93.6413 4.46062 93.8162 4.89794 93.8162 5.59764C93.8162 6.29735 93.5538 6.82212 93.1165 7.17198C92.6792 7.52183 92.0669 7.69675 91.2798 7.69675H88.481V1.74927H90.1428V3.67346H91.5422C92.2419 3.67346 92.7666 3.76092 93.204 4.11077ZM91.892 6.20988C92.0669 6.03496 92.1544 5.86003 92.1544 5.59764C92.1544 5.07286 91.8046 4.81047 91.1923 4.81047H90.1428V6.47227H91.1923C91.4547 6.47227 91.7171 6.38481 91.892 6.20988Z" fill="white"/>
<path d="M97.052 5.42272H96.2648V7.69675H94.603V1.74927H96.2648V4.02331H97.052L98.4514 1.74927H100.201L98.3639 4.63555L100.201 7.69675H98.2765L97.052 5.42272Z" fill="white"/>
<path d="M100.901 1.74927H102.563V5.24779L105.012 1.74927H106.586V7.69675H104.924V4.19823L102.475 7.69675H100.901V1.74927Z" fill="white"/>
<path d="M107.897 1.74926H109.559V5.24778L112.008 1.74926H113.583V7.69675H111.921V4.19823L109.472 7.69675H107.897V1.74926ZM109.472 1.04956C109.209 0.787168 109.034 0.437315 109.034 0H110.172C110.172 0.174926 110.259 0.349852 110.346 0.437315C110.434 0.524778 110.609 0.612242 110.784 0.612242C110.959 0.612242 111.134 0.524778 111.221 0.437315C111.309 0.349852 111.396 0.174926 111.396 0H112.533C112.533 0.437315 112.358 0.787168 112.096 1.04956C111.833 1.31195 111.396 1.39941 110.784 1.39941C110.172 1.39941 109.734 1.31195 109.472 1.04956Z" fill="white"/>
<path d="M59.5304 11.7207V29.6506H55.4196V15.1318H47.2856V29.6506H43.1748V11.7207H59.5304Z" fill="white"/>
<path d="M65.5658 28.7754C64.0789 27.9883 62.9419 26.8513 62.0673 25.4519C61.1926 24.0524 60.8428 22.4781 60.8428 20.7288C60.8428 18.9796 61.2801 17.4053 62.0673 16.0058C62.9419 14.6064 64.0789 13.4694 65.5658 12.6822C67.0527 11.8951 68.7145 11.4578 70.6386 11.4578C72.4754 11.4578 74.1372 11.8951 75.624 12.6822C77.1109 13.4694 78.2479 14.6064 79.1226 16.0058C79.9972 17.4053 80.4345 18.9796 80.4345 20.7288C80.4345 22.4781 79.9972 24.0524 79.1226 25.4519C78.2479 26.8513 77.1109 27.9883 75.624 28.7754C74.1372 29.5626 72.4754 29.9999 70.6386 29.9999C68.7145 29.9999 67.0527 29.5626 65.5658 28.7754ZM73.4375 25.7142C74.3121 25.1895 74.9243 24.5772 75.4491 23.7026C75.9739 22.828 76.1488 21.8659 76.1488 20.7288C76.1488 19.5918 75.8864 18.6297 75.4491 17.7551C74.9243 16.8805 74.3121 16.1808 73.4375 15.7435C72.5628 15.2187 71.6007 15.0438 70.5512 15.0438C69.5016 15.0438 68.5395 15.3061 67.6649 15.7435C66.7903 16.2682 66.178 16.8805 65.6532 17.7551C65.1285 18.6297 64.9535 19.5918 64.9535 20.7288C64.9535 21.8659 65.2159 22.828 65.6532 23.7026C66.178 24.5772 66.7903 25.2769 67.6649 25.7142C68.5395 26.239 69.5016 26.4139 70.5512 26.4139C71.6007 26.5014 72.5628 26.239 73.4375 25.7142Z" fill="white"/>
<path d="M93.5536 12.5953C94.6906 13.1201 95.6527 13.9073 96.265 14.8694C96.8772 15.8315 97.227 16.9685 97.227 18.3679C97.227 19.6798 96.8772 20.8169 96.265 21.779C95.6527 22.741 94.6906 23.5282 93.5536 24.053C92.4166 24.5778 91.0172 24.8402 89.4428 24.8402H85.8569V29.8256H81.7461V11.7207H89.5303C91.0172 11.7207 92.3291 11.9831 93.5536 12.5953ZM91.9793 20.5545C92.5915 20.0297 92.9414 19.2425 92.9414 18.2804C92.9414 17.2309 92.5915 16.5312 91.9793 16.0064C91.367 15.4816 90.4049 15.2192 89.1805 15.2192H85.7694V21.4291H89.1805C90.4049 21.3416 91.367 21.0792 91.9793 20.5545Z" fill="white"/>
<path d="M113.496 15.1318H107.723V29.6506H103.612V15.1318H97.9272V11.7207H113.496V15.1318Z" fill="white"/>
</svg>
