<svg width="126" height="39" viewBox="0 0 126 39" fill="none" xmlns="http://www.w3.org/2000/svg">
<path d="M21.191 19.4002L34.7678 33.6002L33.3336 35.1002L31.9951 36.5002L18.4183 22.3002L4.84157 36.5002L2.06885 33.6002L15.6456 19.4002L2.06885 5.20014L4.84157 2.40015L18.4183 16.5001L31.9951 2.40015L34.7678 5.20014L21.191 19.4002Z" fill="#D7BA28"/>
<path d="M14.5939 2.00009C14.5939 3.00009 13.829 3.9001 12.8729 3.9001H4.93719C4.17231 3.9001 3.50303 4.6001 3.50303 5.4001V13.6001C3.50303 14.6001 2.73814 15.4001 1.78203 15.4001C0.825922 15.4001 0.0610352 14.6001 0.0610352 13.6001V2.60009C0.0610352 1.30009 1.11275 0.20009 2.3557 0.20009H12.8729C13.7334 0.100089 14.5939 0.900093 14.5939 2.00009Z" fill="#263A80"/>
<path d="M22.2427 2.00009C22.2427 3.00009 23.0076 3.9001 23.9637 3.9001H31.8038C32.5687 3.9001 33.2379 4.6001 33.2379 5.4001V13.6001C33.2379 14.6001 34.0028 15.4001 34.9589 15.4001C35.915 15.4001 36.6799 14.6001 36.6799 13.6001V2.60009C36.6799 1.30009 35.6282 0.20009 34.3853 0.20009H24.0593C23.1032 0.100089 22.2427 0.900093 22.2427 2.00009Z" fill="#263A80"/>
<path d="M22.2427 36.9C22.2427 35.9 23.0076 35 23.9637 35H31.8038C32.5687 35 33.2379 34.3 33.2379 33.5V25.3C33.2379 24.3 34.0028 23.5 34.9589 23.5C35.915 23.5 36.6799 24.3 36.6799 25.3V36.3C36.6799 37.6 35.6282 38.7 34.3853 38.7H24.0593C23.1032 38.7 22.2427 37.9 22.2427 36.9Z" fill="#263A80"/>
<path d="M14.5939 36.9C14.5939 35.9 13.829 35 12.8729 35H4.93719C4.17231 35 3.50303 34.3 3.50303 33.5V25.3C3.50303 24.3 2.73814 23.5 1.78203 23.5C0.825922 23.5 0.0610352 24.3 0.0610352 25.3V36.3C0.0610352 37.6 1.11275 38.7 2.3557 38.7H12.8729C13.7334 38.7 14.5939 37.9 14.5939 36.9Z" fill="#263A80"/>
<path d="M57.6187 11.4001C57.6187 11.0001 57.4275 10.6001 57.1406 10.3001C56.8538 10.0001 56.4714 9.80015 56.0889 9.80015H50.8303V13.0001H55.9933C56.3757 13.0001 56.7582 12.8001 57.045 12.5001C57.4275 12.2001 57.6187 11.9001 57.6187 11.4001ZM56.0889 15.5001H50.8303V20.3002H48.5356V7.40015H56.0889C57.1406 7.40015 58.0967 7.80014 58.8616 8.60014C59.6265 9.40014 60.009 10.3001 60.009 11.4001C60.009 12.5001 59.6265 13.4001 58.8616 14.2001C58.0011 15.1001 57.1406 15.5001 56.0889 15.5001Z" fill="black"/>
<path d="M71.1955 13.8002C71.1955 12.7002 70.8131 11.7002 69.9526 10.9002C69.1877 10.1002 68.2316 9.7002 67.0842 9.7002C65.9369 9.7002 64.9808 10.1002 64.2159 10.9002C63.451 11.7002 62.973 12.7002 62.973 13.8002C62.973 15.0002 63.3554 16.0002 64.2159 16.8002C64.9808 17.6002 65.9369 18.0002 67.0842 18.0002C68.2316 18.0002 69.1877 17.6002 69.9526 16.8002C70.8131 16.0002 71.1955 15.0002 71.1955 13.8002ZM73.5858 13.8002C73.5858 15.6002 72.9165 17.2002 71.6736 18.5002C70.4306 19.8002 68.9009 20.5002 67.1799 20.5002C65.4589 20.5002 63.9291 19.8002 62.6861 18.5002C61.4432 17.2002 60.7739 15.6002 60.7739 13.8002C60.7739 11.9002 61.3476 10.4002 62.5905 9.1002C63.8335 7.8002 65.3633 7.2002 67.1799 7.2002C68.9009 7.2002 70.4306 7.9002 71.6736 9.2002C72.9165 10.5002 73.5858 12.0002 73.5858 13.8002Z" fill="black"/>
<path d="M83.4337 11.4001C83.4337 11.0001 83.2425 10.6001 82.9557 10.3001C82.6688 10.0001 82.2864 9.80015 81.9039 9.80015H76.6453V13.0001H81.8083C82.1908 13.0001 82.5732 12.8001 82.8601 12.5001C83.2425 12.2001 83.4337 11.9001 83.4337 11.4001ZM85.9196 20.3002H83.2425L80.5654 15.5001H76.741V20.3002H74.4463V7.40015H81.9996C83.0513 7.40015 84.0074 7.80014 84.7723 8.60014C85.5372 9.40014 85.9196 10.3001 85.9196 11.4001C85.9196 12.3001 85.7284 13.0001 85.2503 13.7001C84.7723 14.4001 84.103 14.9001 83.3381 15.2001L85.9196 20.3002Z" fill="black"/>
<path d="M97.3932 9.80015H93.2819V20.3002H90.9873V9.80015H86.876V7.40015H97.3932V9.80015Z" fill="black"/>
<path d="M112.786 13.8002C112.786 12.7002 112.404 11.7002 111.543 10.9002C110.778 10.1002 109.822 9.7002 108.675 9.7002C107.528 9.7002 106.572 10.1002 105.807 10.9002C105.042 11.7002 104.564 12.7002 104.564 13.8002C104.564 15.0002 104.946 16.0002 105.807 16.8002C106.572 17.6002 107.528 18.0002 108.675 18.0002C109.822 18.0002 110.778 17.6002 111.543 16.8002C112.404 16.0002 112.786 15.0002 112.786 13.8002ZM115.081 13.8002C115.081 15.6002 114.412 17.2002 113.169 18.5002C111.926 19.8002 110.396 20.5002 108.675 20.5002C106.954 20.5002 105.424 19.8002 104.181 18.5002C102.938 17.2002 102.269 15.6002 102.269 13.8002C102.269 11.9002 102.843 10.4002 104.086 9.1002C105.329 7.8002 106.858 7.2002 108.675 7.2002C110.396 7.2002 111.926 7.9002 113.169 9.2002C114.507 10.5002 115.081 12.0002 115.081 13.8002Z" fill="black"/>
<path d="M125.981 9.80015H118.332V12.2001H122.825V14.7001H118.332V20.3002H115.941V7.40015H125.981V9.80015Z" fill="black"/>
<path d="M54.9418 25H52.7427L49.97 28V25H48.249V32.8H49.97V30.6L51.4042 29L53.5076 32.8H55.4198L52.5515 27.7L54.9418 25Z" fill="black"/>
<path d="M64.8855 27.7H61.1566V25H59.5312V32.8H61.1566V29.5H64.8855V32.8H66.5108V25H64.8855V27.7Z" fill="black"/>
<path d="M72.6298 29.5H75.1157V27.7H72.6298V26.7H77.0279V25H71.0044V32.8H77.1235V31H72.6298V29.5Z" fill="black"/>
<path d="M83.0512 26.7H85.9195C86.1107 26.7 86.3019 26.8 86.4932 26.9C86.6844 27.1 86.6844 27.2 86.6844 27.4C86.6844 27.6 86.5888 27.8 86.4932 27.9C86.3019 28.1 86.2063 28.1 85.9195 28.1H83.0512V26.7ZM87.8317 28.9C88.1185 28.5 88.3098 28 88.3098 27.5C88.3098 26.8 88.1185 26.2 87.6405 25.7C87.1624 25.2 86.5888 25 85.9195 25H81.4258V32.8H83.0512V30H85.059L86.6844 32.8H88.5966L86.8756 29.8C87.258 29.6 87.6405 29.3 87.8317 28.9Z" fill="black"/>
<path d="M96.3414 27.8002C95.6722 27.7002 95.1941 27.6001 94.9073 27.5001C94.5248 27.3001 94.6204 27.2001 94.6204 27.1001C94.6204 27.0001 94.6204 26.9001 95.0029 26.7001C95.2897 26.6001 95.6722 26.6001 95.959 26.6001C96.8195 26.6001 97.4888 26.8001 98.0624 27.2001L98.1581 27.3002L99.1142 25.9001L99.0185 25.8001C98.0624 25.2001 97.1063 24.9001 96.0546 24.9001C95.1941 24.9001 94.4292 25.1001 93.8556 25.5001C93.2819 25.9001 92.8994 26.5001 92.8994 27.1001C92.8994 27.7001 93.0907 28.3001 93.5687 28.7001C94.0468 29.1001 94.8117 29.4001 96.0546 29.5001C96.7239 29.6001 97.2019 29.7002 97.4888 29.9002C97.8712 30.1002 97.8712 30.4002 97.8712 30.4002C97.8712 30.6002 97.7756 30.8002 97.4888 30.9002C97.2019 31.1002 96.7239 31.1001 96.1502 31.2001C95.1941 31.2001 94.238 30.9002 93.4731 30.4002L93.3775 30.3002L92.4214 31.7001L92.517 31.8002C93.5687 32.6002 94.8117 33.0002 96.1502 33.0002C97.2019 33.0002 97.9668 32.8002 98.5405 32.3002C99.1142 31.8002 99.401 31.2002 99.401 30.4002C99.401 29.8002 99.2098 29.2001 98.7317 28.7001C98.3493 28.2001 97.4888 27.9002 96.3414 27.8002Z" fill="black"/>
<path d="M108.866 30.5C108.388 31 107.91 31.2 107.241 31.2C106.572 31.2 106.094 31 105.616 30.5C105.138 30 104.946 29.5 104.946 28.9C104.946 28.3 105.138 27.7 105.616 27.3C106.094 26.9 106.572 26.6 107.241 26.6C107.91 26.6 108.388 26.8 108.866 27.3C109.344 27.7 109.536 28.3 109.536 28.9C109.536 29.5 109.344 30 108.866 30.5ZM107.337 24.8C106.285 24.8 105.329 25.2 104.564 26C103.799 26.8 103.417 27.7 103.417 28.9C103.417 30 103.799 31 104.564 31.8C105.329 32.6 106.285 33 107.337 33C108.388 33 109.344 32.6 110.109 31.8C110.874 31 111.257 30 111.257 28.9C111.257 27.8 110.874 26.9 110.109 26.1C109.249 25.2 108.293 24.8 107.337 24.8Z" fill="black"/>
<path d="M120.722 25V29.9L116.993 25H116.897H115.368V32.8H116.993V27.9L120.818 32.8H122.443V25H120.722Z" fill="black"/>
</svg>
