<svg width="24" height="21" viewBox="0 0 24 21" fill="none" xmlns="http://www.w3.org/2000/svg">
<path d="M2.55087 8.88189C8.67625 6.09369 12.7857 4.18179 14.8792 3.3055C20.7719 0.756287 21.9349 0.27832 22.7878 0.27832C22.9429 0.27832 23.3307 0.357973 23.6408 0.517299C23.8734 0.676624 23.9509 0.915603 23.9509 1.15459C23.9509 1.31392 24.0284 1.71226 23.9509 2.03091C23.6407 5.53607 22.2451 14.06 21.5473 17.9635C21.2371 19.6364 20.6944 20.194 20.0741 20.2737C18.8335 20.3533 17.9031 19.3974 16.7401 18.6008C14.8792 17.3262 13.7937 16.5295 12.0104 15.2549C9.91688 13.821 11.3125 13.0243 12.4756 11.7497C12.7857 11.4311 18.2133 6.253 18.2908 5.77502C18.2908 5.69536 18.2908 5.53603 18.2133 5.37671C18.0582 5.29705 17.9031 5.29706 17.748 5.29706C17.5929 5.37673 14.569 7.36829 8.8313 11.5108C7.9784 12.1481 7.20304 12.3871 6.50521 12.3871C5.72985 12.3871 4.33423 11.9091 3.24872 11.5904C1.9306 11.1125 0.845073 10.8734 1.00015 10.1565C1.00015 9.6785 1.5429 9.2802 2.55087 8.88189Z" fill="black"/>
</svg>
