<svg width="24" height="20" viewBox="0 0 24 20" fill="none" xmlns="http://www.w3.org/2000/svg">
<path d="M2.55087 8.60357C8.67625 5.81537 12.7857 3.90347 14.8792 3.02718C20.7719 0.477967 21.9349 0 22.7878 0C22.9429 0 23.3307 0.079653 23.6408 0.238979C23.8734 0.398304 23.9509 0.637283 23.9509 0.876271C23.9509 1.0356 24.0284 1.43394 23.9509 1.75259C23.6407 5.25775 22.2451 13.7817 21.5473 17.6851C21.2371 19.3581 20.6944 19.9157 20.0741 19.9953C18.8335 20.075 17.9031 19.1191 16.7401 18.3224C14.8792 17.0478 13.7937 16.2512 12.0104 14.9766C9.91688 13.5427 11.3125 12.746 12.4756 11.4714C12.7857 11.1528 18.2133 5.97468 18.2908 5.4967C18.2908 5.41704 18.2908 5.25771 18.2133 5.09839C18.0582 5.01872 17.9031 5.01874 17.748 5.01874C17.5929 5.09841 14.569 7.08997 8.8313 11.2324C7.9784 11.8697 7.20304 12.1087 6.50521 12.1087C5.72985 12.1087 4.33423 11.6308 3.24872 11.3121C1.9306 10.8341 0.845073 10.5951 1.00015 9.87815C1.00015 9.40018 1.5429 9.00188 2.55087 8.60357Z" fill="white"/>
</svg>
